<?xml version="1.0" encoding="utf-8"?>
<!-- Generator: Adobe Illustrator 24.1.1, SVG Export Plug-In . SVG Version: 6.00 Build 0)  -->
<svg version="1.1" id="Layer_1" xmlns="http://www.w3.org/2000/svg" xmlns:xlink="http://www.w3.org/1999/xlink" x="0px" y="0px"
	 viewBox="0 0 1000 1000" style="enable-background:new 0 0 1000 1000;" xml:space="preserve">
<style type="text/css">
	.st0{fill:#6F6F6D;}
	.st1{fill:#7CBA3D;}
	.st2{fill:#FFFFFF;}
	.st3{font-family:'Calibri';}
	.st4{font-size:42.6418px;}
	.st5{fill:none;stroke:#FFFFFF;stroke-miterlimit:10;}
</style>
<rect x="-1.4" y="0" width="1001.4" height="1000"/>
<image style="display:none;overflow:visible;enable-background:new    ;" width="1182" height="473" xlink:href="745D6999.jpg"  transform="matrix(0.999 0 0 0.999 -88.886 306.3585)">
</image>
<g>
	<rect x="332" y="530.3" class="st0" width="38" height="81.7"/>
	<g id="indicon_1_">
		<rect x="95" y="446" class="st1" width="39" height="104"/>
		<rect x="146" y="476" class="st1" width="36" height="74"/>
		<path class="st1" d="M182,483.9c0,0,24.4-25.2,44,1.6c1.9,2.6,3,5.8,3.1,9.1L230,550l-37,1l-0.5-43.5c0,0-5-8-9,1v42l-14-15v-49
			L182,483.9z"/>
		<rect x="287" y="440" class="st1" width="36" height="110"/>
		<ellipse class="st1" cx="351.5" cy="454.5" rx="20.5" ry="17.5"/>
		<rect x="332" y="475.3" class="st1" width="38" height="55.5"/>
		<path class="st1" d="M436,477v32c0,0-13.5-9.5-20-1.7c-3.7,4.4-2.3,11,2.8,13.7c3.9,2,9.8,2.4,18.2-4v31c0,0-37.2,14.5-52-7.5
			c-1.3-2-2.7-4-4.1-5.9c-3.7-5-10.2-17.7-1.9-39.6C390,466,425,475,436,477z"/>
		<path class="st1" d="M265,474c-16,0-27,16-27,24c0,0-3,2-2,28c0,0,2,26,25,27s26-10,26-10v-59C287,484,281,474,265,474z M279,522
			c-3.9,0-7-4-7-9s3.1-9,7-9s7,4,7,9S282.9,522,279,522z"/>
		<path class="st1" d="M482.5,472c-24,0-43.5,18.4-43.5,41c0,22.6,19.5,41,43.5,41s43.5-18.4,43.5-41S506.5,472,482.5,472z
			 M482.5,522c-4.1,0-7.5-3.8-7.5-8.5s3.4-8.5,7.5-8.5s7.5,3.8,7.5,8.5S486.6,522,482.5,522z"/>
		<rect x="532" y="476" class="st1" width="36" height="74"/>
		<path class="st1" d="M579,550h37v-51c0,0-1-24-26-25c0,0-15-2.1-22,9v24.6c0,0,7.5-8.1,11.5,0.9V550H579z"/>
	</g>
	<path class="st0" d="M418,565c0,0-10-0.7-14,6.1V567h-23v46h23v-22c0.3,0,0-2,1.2-3.5c2.1-2.5,5.8-2.1,5.8,1.2V613h23v-36
		C434,577,434,565,418,565z"/>
	<path class="st0" d="M480,565c0,0-10-0.7-14,6.1V567h-23v46h23v-22c0.3,0,0-2,1.2-3.5c2.1-2.5,5.8-2.1,5.8,1.2V613h23v-36
		C496,577,496,565,480,565z"/>
	<path class="st0" d="M529.5,565c-14.6,0-26.5,11.2-26.5,25s11.9,25,26.5,25s26.5-11.2,26.5-25S544.1,565,529.5,565z M529.5,596
		c-3,0-5.5-2.7-5.5-6s2.5-6,5.5-6s5.5,2.7,5.5,6S532.5,596,529.5,596z"/>
	<polygon class="st0" points="581,567 556,567 576,613 597,613 617,567 591.5,567 586.5,587.5 	"/>
	<polygon class="st0" points="769,567 744,567 764,613 785,613 805,567 779.5,567 774.5,587.5 	"/>
	<path class="st0" d="M650,567l0.1,5.4l0,0c0,0-6.7-10.2-18.8-6.5c-6,1.8-10.7,6.5-12.9,12.4c-0.8,2-1.3,4-1.3,5.7v7.9
		c0,5.1,1.3,10.2,4.1,14.5c1.5,2.4,3.5,4.5,5.9,5.6c7,3,13.7,4.8,23.9-5.6l0.1,6.6h21v-46L650,567L650,567z M644.5,596
		c-3,0-5.5-2.9-5.5-6.5s2.5-6.5,5.5-6.5s5.5,2.9,5.5,6.5S647.5,596,644.5,596z"/>
	<polygon class="st0" points="713,567 707,567 707,552 684,552 684,567 677,567 677,584 684,584 684,613 707,613 707,584 713,584 	
		"/>
	<path class="st0" d="M858,582.1c-2.2-5.4-8.7-16.3-26-17.1c0,0-20,0-26,19c0,0-2,4,0,14s15,15,20,16c3.9,0.8,23,4,32-15l-21.5-0.5
		c0,0-1.9,1-4.5,0.5c-1.7-0.3-3.9-0.3-5.5-5.5L859,594v-6.9C859,585.4,858.7,583.7,858,582.1z M828,582.5c0-1.9,2.2-3.5,5-3.5
		s5,1.6,5,3.5S828,584.4,828,582.5z"/>
	<path class="st0" d="M904,570l-6,12c0,0-14-7-13,0c0,0,20,3,20,16c0,9.1-8.7,13.3-14,15c-2.2,0.7-4.6,1-6.9,0.8
		c-6-0.4-19.2-1.5-23-3.8l5.5-14.5l9.7,3.5c0.9,0.3,1.8,0.5,2.8,0.5h3.6v-4h-2c-1.6,0-3.1-0.2-4.6-0.7c-4-1.4-11.4-4.7-11.4-11.3
		c0-9,3-11,3-11s4-7,15-7S895.5,565.5,904,570z"/>
	<ellipse class="st1" cx="742" cy="472" rx="88" ry="87"/>
	<path d="M810,479c0,0-16-6-31,9c-8,8-8,17-6.4,23.8c-0.2,0.1-0.4,0.1-0.6,0.2c0.1,0.3-8.5,2-9.2,2.2c-1.3,0.2-2.6,0.4-3.9,0.5
		c-0.9,0.1-2.2,0.6-3,0c-0.3-0.3-0.6-0.6-0.8-1c-2.3-3.2-5.8-5.5-9.6-6.4c-0.2-0.1-2.5-0.3-2.5-0.3c-0.7-4.1,0.5-13.1,1.3-18.6
		c15.2-1.2,27.2-13.6,27.2-28.9c0-16-13.2-29-29.5-29s-29.5,13-29.5,29c0,12.5,8.1,23.2,19.4,27.3l0,0c0,0-1.4,13.7-2.4,15.7
		s-16,5-18,5c-1.3,0-5.6-5.1-8.6-8.5c8.2-14.2,0.1-29,0.1-29c-24-31-48.6-6.8-48.6-6.8c-1.7,8.3-1.5,18.4,0.8,27.3
		c3.2,12.4,9.1,22.5,9.1,22.5s4.6,0,5.6,0c16,0,25-5,25-5l0,0l0,0c1.2,1.7,2.6,3.4,4.1,4.9c0.3,0.2,3.6,2.6,4.6,3.1
		c-0.8,0.5-1.8,5-1.8,5s-2,9,0,20s12.7,14.5,12.7,14.5c0.4,0,4.9,1.4,5,1c3-9,12.3-13.5,12.3-13.5c14,2,8.8,17,8.8,17
		c0.1-0.4,3.8-0.4,4.2-0.5c1.2-0.3,2.4-0.7,3.5-1.2c5.5-2.6,9.4-12.1,11.3-17.9c0.8-2.5,1.3-5.2,1.3-7.8c0-0.6,0-6.6-0.1-6.6
		c1,0,15.4-3.6,16-4c5,13,23.8,15.8,23.8,15.8c2.4-2.6,5-4.7,7.1-7c4.5-4.9,7.8-9.3,10.5-13.7c9.6-15.6,10-27.9,10-27.9
		C824.4,483.2,810,479,810,479z M776.9,521.8c0.1,0.1,0.1,0.2,0.1,0.2C776.9,522,776.9,521.9,776.9,521.8z"/>
	<g>
		<rect x="719" y="567" class="st0" width="23" height="46"/>
		<ellipse class="st0" cx="731" cy="553" rx="12" ry="11"/>
	</g>
</g>
<text transform="matrix(1 0 0 1 250.3981 690.6909)" class="st2 st3 st4">(An ISO 9001:2015 company)</text>
<image style="display:none;overflow:visible;" width="4167" height="4167" xlink:href="final/vector logo trans-01.png"  transform="matrix(0.24 0 0 0.24 -1.4656 0.7259)">
</image>
<g>
	<g>
		<path class="st2" d="M840.4,416.5c0-0.3,0-0.5,0-0.8c0.1,0,0.3,0,0.4,0c0.2,0,0.4,0,0.7,0c0.1,0,0.1,0,0.2-0.1
			c0.1-0.1,0.1-0.1,0.1-0.3c-0.3-0.5-0.6-0.9-1-1.4c-0.4-0.6-0.8-1.1-1.2-1.7c-0.3-0.4-0.5-0.7-0.8-1.1c-0.2-0.2-0.3-0.4-0.5-0.7
			c-0.1,0.1-0.2,0.3-0.3,0.4c-0.7,0.9-1.5,1.8-2.2,2.8c-0.4,0.5-0.7,0.9-1.1,1.4c0,0,0,0.1-0.1,0.1c-0.2,0.3,0,0.5,0.3,0.5
			c0.3,0,0.5,0,0.8,0c0,0,0.1,0,0.1,0c0,0.3,0,0.5,0,0.8c-1.4,0-2.9,0-4.3,0c0-0.3,0-0.5,0-0.8c0,0,0.1,0,0.1,0c0.3,0,0.5,0,0.8-0.1
			c0.4-0.1,0.6-0.3,0.9-0.6c0.5-0.5,0.9-1.1,1.4-1.6c0.5-0.6,1-1.2,1.5-1.8c0.5-0.6,1-1.3,1.6-1.9c0-0.1,0-0.1,0-0.1
			c-0.2-0.4-0.5-0.7-0.7-1.1c-0.4-0.6-0.8-1.1-1.2-1.7c-0.4-0.6-0.9-1.2-1.3-1.9c-0.4-0.6-0.8-1.1-1.2-1.7c-0.1-0.2-0.2-0.3-0.3-0.5
			c0-0.1-0.1-0.1-0.2-0.1c-0.8,0-1.5,0-2.3,0c-0.2,0-0.3,0-0.5,0c0,0,0,0.1,0,0.1c0,1.4,0,2.8,0,4.3c0,0.2,0,0.3,0,0.5
			c0.1,0.5,0.3,0.7,0.8,0.7c0.3,0,0.5,0,0.8,0c0,0.3,0,0.6,0,0.8c-1.7,0-3.4,0-5.1,0c0-0.3,0-0.5,0-0.8c0,0,0.1,0,0.1,0
			c0.3,0,0.5,0,0.8,0c0.4,0,0.7-0.4,0.8-0.8c0-0.5,0-1,0-1.5c0-2.5,0-5,0-7.5c0-0.4,0-0.8,0-1.2c0-0.3-0.1-0.5-0.3-0.7
			c-0.2-0.1-0.4-0.1-0.6-0.1c-0.2,0-0.4,0-0.6,0c0,0-0.1,0-0.1,0c0-0.3,0-0.5,0-0.8c0,0,0.1,0,0.1,0c1.8,0,3.5,0,5.3,0
			c0.7,0,1.3,0,2,0c0.7,0,1.4,0.1,2.1,0.3c0.9,0.3,1.7,0.8,2.1,1.7c0.2,0.5,0.3,1,0.3,1.5c0,0.6-0.2,1.1-0.4,1.6
			c-0.3,0.6-0.8,1-1.4,1.3c-0.5,0.3-1,0.4-1.6,0.5c0,0-0.1,0-0.1,0c1.3,1.9,2.6,3.8,4,5.6c0.1-0.2,0.3-0.3,0.4-0.5
			c0.7-0.9,1.5-1.8,2.2-2.7c0.1-0.2,0.2-0.3,0.4-0.5c0,0,0-0.1,0-0.1c0.1-0.3,0-0.5-0.3-0.5c-0.1,0-0.3,0-0.5,0c-0.2,0-0.3,0-0.5,0
			c0-0.3,0-0.5,0-0.8c1.4,0,2.9,0,4.3,0c0,0.3,0,0.5,0,0.8c-0.1,0-0.2,0-0.3,0c-0.6,0-1.1,0.2-1.5,0.7c-0.5,0.6-1,1.2-1.5,1.8
			c-0.5,0.6-1,1.2-1.5,1.8c-0.2,0.3-0.5,0.6-0.7,0.9c0,0,0,0.1,0,0.1c0.2,0.3,0.4,0.6,0.6,0.9c0.5,0.7,1,1.4,1.5,2.1
			c0.4,0.6,0.9,1.1,1.3,1.7c0.3,0.4,0.6,0.8,0.9,1.2c0.2,0.3,0.5,0.5,0.8,0.6c0.2,0,0.4,0.1,0.6,0.1c0.1,0,0.2,0,0.2,0
			c0,0.3,0,0.5,0,0.8C843.8,416.5,842.1,416.5,840.4,416.5z M829.9,401.8C829.9,401.8,829.9,401.8,829.9,401.8c1.3,0,2.5,0,3.7,0
			c0.5,0,1-0.1,1.4-0.3c0.5-0.2,0.9-0.6,1.1-1.1c0.3-0.7,0.3-1.5,0-2.2c-0.2-0.6-0.7-1-1.3-1.2c-0.4-0.1-0.9-0.2-1.4-0.2
			c-1.2,0-2.3,0-3.5,0c0,0-0.1,0-0.1,0C829.9,398.4,829.9,400.1,829.9,401.8z"/>
	</g>
	<circle class="st5" cx="836" cy="406.1" r="15.7"/>
</g>
</svg>
