<?xml version="1.0" encoding="utf-8"?>
<!-- Generator: Adobe Illustrator 24.1.1, SVG Export Plug-In . SVG Version: 6.00 Build 0)  -->
<svg version="1.1" id="Layer_1" xmlns="http://www.w3.org/2000/svg" xmlns:xlink="http://www.w3.org/1999/xlink" x="0px" y="0px"
	 viewBox="0 0 1000 1000" style="enable-background:new 0 0 1000 1000;" xml:space="preserve">
<style type="text/css">
	.st0{fill:#6F6F6D;}
	.st1{fill:#7CBA3D;}
	.st2{fill:#FFFFFF;}
	.st3{font-family:'Calibri';}
	.st4{font-size:42.6418px;}
	.st5{fill:none;stroke:#000000;stroke-miterlimit:10;}
</style>
<image style="display:none;overflow:visible;" width="1182" height="473" xlink:href="745D6999.jpg"  transform="matrix(1 0 0 1 -89.9787 305.65)">
</image>
<g>
	<g id="XMLID_1_">
		<g>
			<path class="st0" d="M904,570l-6,12c0,0-14-7-13,0c0,0,20,3,20,16c0,9.1-8.7,13.3-14,15c-2.2,0.7-4.6,1-6.9,0.8
				c-6-0.4-19.2-1.5-23-3.8l5.5-14.5l9.7,3.5c0.9,0.3,1.8,0.5,2.8,0.5h3.6v-4h-2c-1.6,0-3.1-0.2-4.6-0.7c-4-1.4-11.4-4.7-11.4-11.3
				c0-9,3-11,3-11s4-7,15-7S895.5,565.5,904,570z"/>
			<path class="st0" d="M859,587.1v6.9l-32.5-0.5c1.6,5.2,3.8,5.2,5.5,5.5c2.6,0.5,4.5-0.5,4.5-0.5L858,599c-9,19-28.1,15.8-32,15
				c-5-1-18-6-20-16s0-14,0-14c6-19,26-19,26-19c17.3,0.8,23.8,11.7,26,17.1C858.7,583.7,859,585.4,859,587.1z M838,582.5
				c0-1.9-2.2-3.5-5-3.5s-5,1.6-5,3.5S838,584.4,838,582.5z"/>
			<path class="st1" d="M830,472c0,6.1-0.6,12-1.8,17.8h-0.7c-3.9-6-17.5-10.8-17.5-10.8s-16-6-31,9c-8,8-8,17-6.4,23.8
				c-0.2,0.1-0.4,0.1-0.6,0.2c0.1,0.3-8.5,2-9.2,2.2c-1.3,0.2-2.6,0.4-3.9,0.5c-0.9,0.1-2.2,0.6-3,0c-0.3-0.3-0.6-0.6-0.8-1
				c-2.3-3.2-5.8-5.5-9.6-6.4c-0.2-0.1-2.5-0.3-2.5-0.3c-0.7-4.1,0.5-13.1,1.3-18.6c15.2-1.2,27.2-13.6,27.2-28.9
				c0-16-13.2-29-29.5-29s-29.5,13-29.5,29c0,12.5,8.1,23.2,19.4,27.3c0,0-0.4,3.4-0.8,7.1c-0.5,3.7-1.1,7.6-1.6,8.6c-1,2-16,5-18,5
				c-1.3,0-5.6-5.1-8.6-8.5c8.2-14.2,0.1-29,0.1-29c-24-31-48.3-5.7-48.3-5.7c-0.4,2.2-0.6,4.4-0.7,6.8c0.5-47.6,39.7-86.1,88-86.1
				C790.6,385,830,424,830,472z"/>
			<polygon class="st2" points="828.2,489.8 828.2,489.8 827.5,492.1 827.5,489.8 			"/>
			<path class="st2" d="M827.5,492.1l0.7-2.3c-0.2,1-0.4,2.1-0.7,3.1V492.1z"/>
			<path class="st2" d="M827.5,493c0,0.5-0.6,2.7-1.4,5c0.5-1.7,1-3.4,1.4-5.1V493z"/>
			<path class="st2" d="M827.5,492.1v0.8c-0.4,1.7-0.9,3.4-1.4,5.1c-0.1,0.2-0.1,0.3-0.2,0.5c-0.2,0.7-0.5,1.4-0.7,2.1
				c0.9-2.6,1.4-4.8,1.8-6.6L827.5,492.1z"/>
			<path class="st2" d="M827.5,489.8v2.3l-0.6,1.9C827.4,491.3,827.5,489.8,827.5,489.8z"/>
			<path class="st2" d="M827.5,489.8c0,0,0,1.5-0.6,4.2l-3.3,10.7c-1.2,2.9-2.6,5.8-4.1,8.5c-0.2,0.3-0.3,0.6-0.5,0.9
				c-0.5,0.9-1,1.7-1.5,2.6c-2.7,4.4-6.7,8.8-11.2,13.7c-2.1,2.3-4.3,4.8-6.7,7.4c0,0-17.6-2.8-22.6-15.8c-0.6,0.4-15,4-16,4
				c0.1,0,0.1,6,0.1,6.6c0,2.6-0.5,5.3-1.3,7.8c-1.9,5.8-5.5,14.8-11,17.4c-1,0.5-2.1,0.8-3.2,1.1c-0.6,0-1.2,0-1.8,0c0,0,0,0,0,0
				c-0.9,0-1.9,0-2.4,0c0,0,0,0,0,0c0,0,0,0,0,0c1.2-1.7,1.9-3.8,1.9-6c0-6.1-5.4-11-12-11s-12,4.9-12,11c0,1.1,0.2,2.1,0.5,3.1
				c-0.2,0-0.5-0.1-0.7-0.2c-1.9-0.5-4.5-1.4-5-1.5c0,0-0.1,0-0.1,0c-0.5-0.2-1-0.3-1.5-0.5c0,0,0,0,0,0c-2.9-1.2-8.8-4.6-10.3-12.9
				c-2-11,0-20,0-20s1-4.5,1.8-5c-1-0.5-4.3-2.9-4.6-3.1c-1.5-1.5-2.9-3.2-4.1-4.9c0,0-9,5-25,5c-1,0-5.4,0.5-5.4,0.5
				c0,0,0-0.1-0.1-0.1c-0.9-1.9-9.9-21.7-10.5-39.3c0-0.7,0-1.3,0-2c0-0.3,0-0.6,0-0.9c0.1-2.3,0.3-4.6,0.7-6.8
				c0,0,24.3-25.3,48.3,5.7c0,0,8.1,14.8-0.1,29c3,3.4,7.3,8.5,8.6,8.5c2,0,17-3,18-5c0.5-1,1.1-4.9,1.6-8.6
				c0.5-3.7,0.8-7.1,0.8-7.1c-11.3-4.1-19.4-14.8-19.4-27.3c0-16,13.2-29,29.5-29s29.5,13,29.5,29c0,15.3-12,27.7-27.2,28.9
				c-0.8,5.5-2,14.5-1.3,18.6c0,0,2.3,0.2,2.5,0.3c3.8,0.9,7.3,3.2,9.6,6.4c0.2,0.4,0.5,0.7,0.8,1c0.8,0.6,2.1,0.1,3,0
				c1.3-0.1,2.6-0.3,3.9-0.5c0.7-0.2,9.3-1.9,9.2-2.2c0.2-0.1,0.4-0.1,0.6-0.2C771,505,771,496,779,488c15-15,31-9,31-9
				S823.5,483.8,827.5,489.8z M777,522c0,0,0-0.1-0.1-0.2C776.9,521.9,776.9,522,777,522z"/>
			<path class="st2" d="M823.5,504.7l3.3-10.7c-0.3,1.7-0.9,4-1.8,6.6c0,0.1-0.1,0.2-0.1,0.3c-0.6,1.6-1.1,3-1.4,3.7
				C823.6,504.5,823.6,504.6,823.5,504.7z"/>
			<path class="st2" d="M825.1,500.5c0.2-0.7,0.5-1.4,0.7-2.1c-0.4,1.4-0.9,2.7-1.4,4c0.2-0.6,0.4-1.1,0.6-1.7
				C825,500.7,825.1,500.6,825.1,500.5z"/>
			<path class="st2" d="M825,500.8c-0.2,0.5-0.4,1.1-0.6,1.7c-0.2,0.5-0.4,1-0.5,1.4c-0.1,0.2-0.2,0.4-0.2,0.6
				C823.9,503.8,824.4,502.4,825,500.8z"/>
			<path class="st2" d="M823.7,504.5c0.1-0.2,0.2-0.4,0.2-0.6c-0.1,0.3-0.3,0.6-0.4,1c0,0,0,0,0-0.1
				C823.6,504.7,823.6,504.6,823.7,504.5z"/>
			<path class="st2" d="M823.5,504.7c0-0.1,0.1-0.2,0.1-0.3C823.6,504.6,823.6,504.7,823.5,504.7L823.5,504.7z"/>
			<path class="st2" d="M823.5,504.7L823.5,504.7c0,0.1,0,0.1,0,0.1c0,0,0,0,0,0c-1,2.6-2.3,5.4-4,8.4
				C821,510.5,822.4,507.7,823.5,504.7z"/>
			<path class="st2" d="M817.5,516.8c0.5-0.9,1.1-1.8,1.5-2.6c-5,9-11.7,17-19.5,23.7c2.4-2.6,4.6-5.1,6.7-7.4
				C810.8,525.6,814.8,521.2,817.5,516.8z"/>
			<polygon class="st0" points="805,567 785,613 764,613 744,567 769,567 774.5,587.5 779.5,567 			"/>
			<path class="st1" d="M776.9,522c5,13,22.6,15.8,22.6,15.8c-14.6,12.5-33.4,20.3-54.1,21.1c1.1-0.3,2.2-0.7,3.2-1.1
				c5.5-2.6,9.1-11.6,11-17.4c0.8-2.5,1.3-5.2,1.3-7.8c0-0.6,0-6.6-0.1-6.6C761.9,526,776.3,522.4,776.9,522z"/>
			<path class="st1" d="M776.9,521.8c0.1,0.1,0.1,0.2,0.1,0.2C776.9,522,776.9,521.9,776.9,521.8z"/>
			<path class="st2" d="M745.4,558.9c-0.1,0-0.2,0-0.3,0.1c-0.1,0-0.8,0-1.6,0C744.2,559,744.8,559,745.4,558.9z"/>
			<path class="st1" d="M743.6,559c-0.5,0-1,0-1.6,0c-0.3,0-0.6,0-0.9,0C741.7,558.9,742.7,559,743.6,559z"/>
			<rect x="719" y="567" class="st0" width="23" height="46"/>
			<path class="st0" d="M743,553c0,2.2-0.7,4.3-1.9,6c-0.1,0-0.2,0-0.3,0c0.5-1.6,4.3-14.1-8.8-16c0,0-8.3,4.3-11.3,13.3
				c0,0.1-0.4,0-0.9-0.1c-0.1,0-0.2,0-0.3-0.1c0,0,0,0,0,0c-0.3-1-0.5-2-0.5-3.1c0-6.1,5.4-11,12-11S743,546.9,743,553z"/>
			<path class="st2" d="M741.1,559C741.1,559,741.1,559,741.1,559C741.1,559,741.1,559,741.1,559C741.1,559,741.1,559,741.1,559z"/>
			<path class="st0" d="M741.1,559C741.1,559,741.1,559,741.1,559c-0.2,0-0.4,0.1-0.4,0.2c0,0,0-0.1,0.1-0.2
				C740.8,559,741,559,741.1,559z"/>
			<path class="st0" d="M731.9,543c13.1,1.9,9.4,14.4,8.8,16c-7.2-0.1-14.3-1-21-2.8c0.5,0.1,0.9,0.2,0.9,0.1
				C723.6,547.3,731.9,543,731.9,543z"/>
			<path class="st0" d="M740.7,559.2c0-0.1,0.2-0.1,0.4-0.2c-2.1,3-5.8,5-10.1,5c-5.4,0-10-3.3-11.5-7.9c0.1,0,0.2,0,0.3,0.1
				c6.7,1.7,13.7,2.7,21,2.8C740.7,559.1,740.7,559.2,740.7,559.2z"/>
			<path class="st2" d="M718.8,555.9c-1.7-0.5-3.3-1-5-1.5C714.3,554.5,716.9,555.4,718.8,555.9z"/>
			<path class="st2" d="M712.2,553.9c0.5,0.2,1,0.3,1.5,0.5C713.6,554.4,713,554.2,712.2,553.9z"/>
			<polygon class="st0" points="713,567 713,584 707,584 707,613 684,613 684,584 677,584 677,567 684,567 684,552 707,552 707,567 
							"/>
			<path class="st1" d="M701.9,541c1.5,8.3,7.4,11.7,10.3,12.9c-20.4-7.3-37.3-21.8-47.5-40.4c0,0,4.4-0.5,5.4-0.5c16,0,25-5,25-5
				c1.2,1.7,2.6,3.4,4.1,4.9c0.3,0.2,3.6,2.6,4.6,3.1c-0.8,0.5-1.8,5-1.8,5S699.9,530,701.9,541z"/>
			<path class="st0" d="M672.1,567v46h-21l-0.1-6.6c-10.2,10.4-16.9,8.6-23.9,5.6c-2.4-1.1-4.4-3.2-5.9-5.6
				c-2.8-4.3-4.1-9.4-4.1-14.5V584c0-1.7,0.5-3.7,1.3-5.7c2.2-5.9,6.9-10.6,12.9-12.4c1.9-0.6,3.6-0.8,5.2-0.8
				c8.8,0,13.6,7.3,13.6,7.3L650,567H672.1z M650,589.5c0-3.6-2.5-6.5-5.5-6.5s-5.5,2.9-5.5,6.5s2.5,6.5,5.5,6.5
				S650,593.1,650,589.5z"/>
			<path class="st2" d="M654,474c0.6,17.7,9.7,37.5,10.5,39.3C658.1,501.6,654.3,488.2,654,474z"/>
			<polygon class="st0" points="617,567 597,613 576,613 556,567 581,567 586.5,587.5 591.5,567 			"/>
			<path class="st1" d="M616,499v51h-36.5v-41.5c-4-9-11.5-0.9-11.5-0.9V483c7-11.1,22-9,22-9C615,475,616,499,616,499z"/>
			<polygon class="st1" points="568,507.6 568,550 532,550 532,476 568,476 568,483 			"/>
			<path class="st0" d="M529.5,565c14.6,0,26.5,11.2,26.5,25s-11.9,25-26.5,25S503,603.8,503,590S514.9,565,529.5,565z M535,590
				c0-3.3-2.5-6-5.5-6s-5.5,2.7-5.5,6s2.5,6,5.5,6S535,593.3,535,590z"/>
			<path class="st1" d="M482.5,472c24,0,43.5,18.4,43.5,41c0,22.6-19.5,41-43.5,41S439,535.6,439,513C439,490.4,458.5,472,482.5,472
				z M490,513.5c0-4.7-3.4-8.5-7.5-8.5s-7.5,3.8-7.5,8.5s3.4,8.5,7.5,8.5S490,518.2,490,513.5z"/>
			<path class="st0" d="M496,577v36h-23v-24.3c0-3.3-3.7-3.7-5.8-1.2c-1.2,1.5-0.9,3.5-1.2,3.5v22h-23v-46h23v4.1
				c4-6.8,14-6.1,14-6.1C496,565,496,577,496,577z"/>
			<path class="st1" d="M437,517v31c0,0-37.2,14.5-52-7.5c-1.3-2-2.7-4-4.1-5.9c-3.7-5-10.2-17.7-1.9-39.6c11-29,46-20,57-18v32
				c0,0-13.5-9.5-20-1.7c-3.7,4.4-2.3,11,2.8,13.7C422.7,523,428.6,523.4,437,517z"/>
			<path class="st0" d="M434,577v36h-23v-24.3c0-3.3-3.7-3.7-5.8-1.2c-1.2,1.5-0.9,3.5-1.2,3.5v22h-23v-46h23v4.1
				c4-6.8,14-6.1,14-6.1C434,565,434,577,434,577z"/>
			<rect x="332" y="530.8" class="st0" width="38" height="81.2"/>
			<rect x="332" y="530.3" class="st1" width="38" height="0.5"/>
			<rect x="332" y="475.3" class="st1" width="38" height="55"/>
			<ellipse class="st1" cx="351.5" cy="454.5" rx="20.5" ry="17.5"/>
			<polygon class="st1" points="323,440 323,550 287,550 287,543 287,484 287,440 			"/>
			<path class="st1" d="M287,484v59c0,0-3,11-26,10s-25-27-25-27c-1-26,2-28,2-28c0-8,11-24,27-24S287,484,287,484z M286,513
				c0-5-3.1-9-7-9s-7,4-7,9s3.1,9,7,9S286,518,286,513z"/>
			<path class="st1" d="M229.1,494.6L230,550l-37,1l-0.5-43.5c0,0-5-8-9,1v42l-1.5-1.6v-65c0,0,24.4-25.2,44,1.6
				C227.9,488.1,229,491.3,229.1,494.6z"/>
			<polygon class="st1" points="182,548.9 182,550 146,550 146,476 182,476 182,483.9 169.5,486.5 169.5,535.5 			"/>
			<polygon class="st1" points="182,483.9 182,548.9 169.5,535.5 169.5,486.5 			"/>
			<rect x="95" y="446" class="st1" width="39" height="104"/>
		</g>
		<g>
		</g>
	</g>
</g>
<text transform="matrix(1 0 0 1 251.9751 690.1816)" class="st3 st4">(An ISO 9001:2015 company)</text>
<path class="st2" d="M654.7,464.3l-0.4-0.1c0,0-0.4,5.4-0.3,6.8C654.1,472.5,654.7,464.3,654.7,464.3z"/>
<g>
	<g>
		<path d="M841.8,415.7c0-0.3,0-0.5,0-0.8c0.1,0,0.3,0,0.4,0c0.2,0,0.4,0,0.7,0c0.1,0,0.1,0,0.2-0.1c0.1-0.1,0.1-0.1,0.1-0.3
			c-0.3-0.5-0.6-0.9-1-1.4c-0.4-0.6-0.8-1.1-1.2-1.7c-0.3-0.4-0.5-0.7-0.8-1.1c-0.2-0.2-0.3-0.4-0.5-0.7c-0.1,0.1-0.2,0.3-0.3,0.4
			c-0.7,0.9-1.5,1.8-2.2,2.8c-0.4,0.5-0.7,0.9-1.1,1.4c0,0,0,0.1-0.1,0.1c-0.2,0.3,0,0.5,0.3,0.5c0.3,0,0.5,0,0.8,0c0,0,0.1,0,0.1,0
			c0,0.3,0,0.5,0,0.8c-1.4,0-2.9,0-4.3,0c0-0.3,0-0.5,0-0.8c0,0,0.1,0,0.1,0c0.3,0,0.5,0,0.8-0.1c0.4-0.1,0.6-0.3,0.9-0.6
			c0.5-0.5,0.9-1.1,1.4-1.6c0.5-0.6,1-1.2,1.5-1.8c0.5-0.6,1-1.3,1.6-1.9c0-0.1,0-0.1,0-0.1c-0.2-0.4-0.5-0.7-0.7-1.1
			c-0.4-0.6-0.8-1.1-1.2-1.7c-0.4-0.6-0.9-1.2-1.3-1.9c-0.4-0.6-0.8-1.1-1.2-1.7c-0.1-0.2-0.2-0.3-0.3-0.5c0-0.1-0.1-0.1-0.2-0.1
			c-0.8,0-1.5,0-2.3,0c-0.2,0-0.3,0-0.5,0c0,0,0,0.1,0,0.1c0,1.4,0,2.8,0,4.3c0,0.2,0,0.3,0,0.5c0.1,0.5,0.3,0.7,0.8,0.7
			c0.3,0,0.5,0,0.8,0c0,0.3,0,0.6,0,0.8c-1.7,0-3.4,0-5.1,0c0-0.3,0-0.5,0-0.8c0,0,0.1,0,0.1,0c0.3,0,0.5,0,0.8,0
			c0.4,0,0.7-0.4,0.8-0.8c0-0.5,0-1,0-1.5c0-2.5,0-5,0-7.5c0-0.4,0-0.8,0-1.2c0-0.3-0.1-0.5-0.3-0.7c-0.2-0.1-0.4-0.1-0.6-0.1
			c-0.2,0-0.4,0-0.6,0c0,0-0.1,0-0.1,0c0-0.3,0-0.5,0-0.8c0,0,0.1,0,0.1,0c1.8,0,3.5,0,5.3,0c0.7,0,1.3,0,2,0c0.7,0,1.4,0.1,2.1,0.3
			c0.9,0.3,1.7,0.8,2.1,1.7c0.2,0.5,0.3,1,0.3,1.5c0,0.6-0.2,1.1-0.4,1.6c-0.3,0.6-0.8,1-1.4,1.3c-0.5,0.3-1,0.4-1.6,0.5
			c0,0-0.1,0-0.1,0c1.3,1.9,2.6,3.8,4,5.6c0.1-0.2,0.3-0.3,0.4-0.5c0.7-0.9,1.5-1.8,2.2-2.7c0.1-0.2,0.2-0.3,0.4-0.5
			c0,0,0-0.1,0-0.1c0.1-0.3,0-0.5-0.3-0.5c-0.1,0-0.3,0-0.5,0c-0.2,0-0.3,0-0.5,0c0-0.3,0-0.5,0-0.8c1.4,0,2.9,0,4.3,0
			c0,0.3,0,0.5,0,0.8c-0.1,0-0.2,0-0.3,0c-0.6,0-1.1,0.2-1.5,0.7c-0.5,0.6-1,1.2-1.5,1.8c-0.5,0.6-1,1.2-1.5,1.8
			c-0.2,0.3-0.5,0.6-0.7,0.9c0,0,0,0.1,0,0.1c0.2,0.3,0.4,0.6,0.6,0.9c0.5,0.7,1,1.4,1.5,2.1c0.4,0.6,0.9,1.1,1.3,1.7
			c0.3,0.4,0.6,0.8,0.9,1.2c0.2,0.3,0.5,0.5,0.8,0.6c0.2,0,0.4,0.1,0.6,0.1c0.1,0,0.2,0,0.2,0c0,0.3,0,0.5,0,0.8
			C845.2,415.7,843.5,415.7,841.8,415.7z M831.3,401C831.3,401,831.3,401,831.3,401c1.3,0,2.5,0,3.7,0c0.5,0,1-0.1,1.4-0.3
			c0.5-0.2,0.9-0.6,1.1-1.1c0.3-0.7,0.3-1.5,0-2.2c-0.2-0.6-0.7-1-1.3-1.2c-0.4-0.1-0.9-0.2-1.4-0.2c-1.2,0-2.3,0-3.5,0
			c0,0-0.1,0-0.1,0C831.3,397.7,831.3,399.3,831.3,401z"/>
	</g>
	<circle class="st5" cx="837.4" cy="405.3" r="15.7"/>
</g>
</svg>
